<?xml version="1.0" encoding="utf-8"?>
<svg id="eb208ada-0674-4b2f-849d-505f988f9e2e" data-name="Layer 1" width="865.76" height="614px" viewBox="0 0 865.76 550" preserveAspectRatio="xMidYMax" xmlns="http://www.w3.org/2000/svg">
  <defs>
    <clipPath id="bb7dec4e-06ae-4f27-9d03-194882854bed">
      <path id="a3e254d5-4d86-4e79-bf89-0fe5680cd90c" data-name="SVGID" d="M112.53,391.14s25.94-21.35,34.18-11.32c0,0,6.16,3.84-7.35,11.32,0,0-70,21.76-8.26,117.32l41.5-22.52s71.75-34,54.78-62.6c0,0-16.41-53,11.59-56.15,0,0,17,0,12.09,23.95,0,0-10.44,37.14-5.5,52,0,0,18.8-10.71,27.8-17.16,0,0,79.29-64.44,84-65.1s6.59-8.19,6.59-8.19l-11.26-30.92-38.76-11.53s-78.27-9.37-116.88,7.67c0,0,13.75,4.75,6.93,9.32a9.67,9.67,0,0,1-5.54,1.55C187.15,328.59,134.42,331.15,112.53,391.14Z" fill="#939598"/>
    </clipPath>
  </defs>
  <path id="e5460902-32fb-4f5b-afd6-7b750d57ead3" data-name="SVGID" d="M 98.894 278.234 C 98.894 278.234 124.834 256.884 133.074 266.914 C 133.074 266.914 139.234 270.754 125.724 278.234 C 125.724 278.234 55.724 299.994 117.464 395.554 L 158.964 373.034 C 158.964 373.034 230.714 339.034 213.744 310.434 C 213.744 310.434 197.334 257.434 225.334 254.284 C 225.334 254.284 242.334 254.284 237.424 278.234 C 237.424 278.234 226.984 315.374 231.924 330.234 C 231.924 330.234 250.724 319.524 259.724 313.074 C 259.724 313.074 339.014 248.634 343.724 247.974 C 348.434 247.314 350.314 239.784 350.314 239.784 L 339.054 208.864 L 300.294 197.334 C 300.294 197.334 222.024 187.964 183.414 205.004 C 183.414 205.004 197.164 209.754 190.344 214.324 C 188.697 215.391 186.765 215.931 184.804 215.874 C 173.514 215.684 120.784 218.244 98.894 278.234 Z" fill="#939598"/>
  <g clip-path="url(#bb7dec4e-06ae-4f27-9d03-194882854bed)" transform="matrix(1, 0, 0, 1, -13.635982, -112.905922)">
    <path d="M131.1,508.46s-13.88-76.34,41.5-130.7c0,0,58-56.57,134.39-53.54l56.92,28.44-9.06,34.55L237.13,463.54S143.5,511.21,131.1,508.46Z" fill="#bcbec0"/>
  </g>
  <path d="M 121.834 254.284 C 121.834 254.284 152.724 221.284 218.664 226.284" fill="none" stroke="#a7a9ac" stroke-miterlimit="10" stroke-width="2.29"/>
  <path d="M 167.124 244.794 C 167.124 244.794 183.834 227.474 214.194 228.314" fill="none" stroke="#a7a9ac" stroke-miterlimit="10" stroke-width="2.29"/>
  <ellipse cx="186.074" cy="287.294" rx="11.81" ry="25.74" fill="#d1d3d4"/>
  <path d="M 268.814 254.284 C 268.814 254.284 261.344 236.434 281.884 228.284 L 268.814 254.284 Z" fill="#d1d3d4"/>
  <circle cx="87.564" cy="266.914" r="11.33" fill="#ed9015"/>
  <path d="M 98.894 340.344 C 102.324 340.344 99.894 305.704 144.764 281.164" fill="none" stroke="#a7a9ac" stroke-miterlimit="10" stroke-width="2.29"/>
  <path d="M 144.764 211.314 L 144.764 340.314 L 59.944 340.314 L 77.364 312.274 C 82.164 304.539 80.199 294.412 72.854 289.034 C 64.728 283.072 53.253 285.234 47.854 293.744 L 12.364 349.374 C 5.066 360.807 12.882 375.853 26.433 376.457 C 26.693 376.468 26.953 376.474 27.214 376.474 L 146.214 376.474 L 146.214 432.474 C 146.214 442.029 153.959 449.774 163.514 449.774 C 173.071 449.78 180.82 442.031 180.814 432.474 L 180.814 376.474 L 207.384 376.474 C 217.307 376.513 225.37 368.477 225.364 358.554 C 225.364 348.661 217.347 340.64 207.454 340.634 L 181.264 340.634 L 181.674 195.244 C 181.68 178.149 167.82 164.289 150.724 164.294 C 140.004 164.294 127.184 169.244 121.544 178.354 L 96.494 220.944 C 91.577 228.698 94.012 238.979 101.884 243.704 C 108.977 247.95 118.123 246.233 123.194 239.704 L 144.764 211.314 Z" fill="#1d0075"/>
  <path d="M 144.764 211.314 L 144.764 340.314 L 59.944 340.314 L 77.364 312.274 C 82.164 304.539 80.199 294.412 72.854 289.034 C 64.728 283.072 53.253 285.234 47.854 293.744 L 12.364 349.374 C 5.066 360.807 12.882 375.853 26.433 376.457 C 26.693 376.468 26.953 376.474 27.214 376.474 L 146.214 376.474 L 146.214 432.474 C 146.214 442.029 153.959 449.774 163.514 449.774 C 173.071 449.78 180.82 442.031 180.814 432.474 L 180.814 376.474 L 207.384 376.474 C 217.307 376.513 225.37 368.477 225.364 358.554 C 225.364 348.661 217.347 340.64 207.454 340.634 L 181.264 340.634 L 181.674 195.244 C 181.68 178.149 167.82 164.289 150.724 164.294 C 140.004 164.294 127.184 169.244 121.544 178.354 L 96.494 220.944 C 91.577 228.698 94.012 238.979 101.884 243.704 C 108.977 247.95 118.123 246.233 123.194 239.704 L 144.764 211.314 Z" fill="#fff" opacity="0.36"/>
  <path d="M 771.874 347.934 C 771.874 347.934 780.424 339.184 785.764 351.994 C 785.764 351.994 789.684 361.254 785.764 373.724 C 785.764 373.724 784.694 378.344 797.514 384.044 C 797.514 384.044 813.894 389.744 817.104 393.304 C 817.104 393.304 833.724 367.914 827.424 335.654 C 826.247 329.46 823.179 323.783 818.644 319.404 C 813.018 313.962 806.236 309.86 798.804 307.404 C 797.648 307.062 796.892 305.955 796.994 304.754 C 797.214 303.144 799.084 301.424 806.774 302.464 C 806.774 302.464 811.244 303.524 817.004 305.384 C 817.004 305.384 807.744 274.694 764.494 272.634 L 755.364 272.634 C 752.115 272.634 750.085 269.117 751.709 266.304 C 751.795 266.155 751.89 266.011 751.994 265.874 C 752.264 265.534 753.334 265.154 752.994 264.814 C 749.284 261.514 729.114 261.924 729.114 261.924 L 729.114 309.844 C 729.114 309.844 735.254 307.344 738.514 312.994 C 738.976 313.816 739.313 314.703 739.514 315.624 C 740.154 318.334 741.424 325.474 741.894 340.854 L 757.894 341.164 C 757.894 341.164 766.754 340.954 771.874 347.934 Z" fill="#d1d3d4"/>
  <ellipse cx="774.45" cy="432.81" rx="7.49" ry="16.41" transform="matrix(0.990772, -0.135543, 0.135543, 0.990772, -65.15602, -3.925935)" fill="#bcbec0"/>
  <ellipse cx="796.02" cy="439.52" rx="4.67" ry="11.05" transform="matrix(0.979187, -0.202958, 0.202958, 0.979187, -86.265951, 57.774075)" fill="#bcbec0"/>
  <ellipse cx="744.33" cy="383.16" rx="11.05" ry="4.06" transform="matrix(0.997927, -0.064358, 0.064358, 0.997927, -36.755963, -64.205917)" fill="#bcbec0"/>
  <path d="M 728.714 282.454 C 731.268 282.668 733.807 283.042 736.314 283.574 C 737.564 283.824 738.814 284.094 740.044 284.414 C 741.274 284.734 742.524 285.014 743.734 285.414 C 746.194 286.094 748.594 286.964 750.994 287.814 C 752.184 288.264 753.354 288.764 754.544 289.244 L 756.314 289.964 L 758.044 290.774 C 767.31 295.066 775.887 300.711 783.494 307.524 C 785.364 309.254 787.134 311.094 788.954 312.874 C 790.774 314.654 792.294 316.694 793.954 318.594 C 795.641 320.52 797.182 322.569 798.564 324.724 C 799.974 326.844 801.244 329.044 802.474 331.264 C 804.914 335.714 807.104 340.264 809.134 344.914 C 811.164 349.564 812.924 354.294 814.594 359.054 C 810.806 349.714 806.386 340.643 801.364 331.904 C 800.064 329.764 798.744 327.624 797.364 325.564 C 795.981 323.494 794.443 321.532 792.764 319.694 C 791.074 317.844 789.434 315.934 787.694 314.144 C 785.954 312.354 784.094 310.664 782.234 308.994 C 774.721 302.391 766.302 296.896 757.234 292.674 L 755.544 291.864 L 753.814 291.144 C 752.654 290.664 751.514 290.144 750.344 289.714 L 746.824 288.444 C 745.654 287.994 744.444 287.684 743.254 287.294 C 738.475 285.797 733.572 284.726 728.604 284.094 L 728.714 282.454 Z" fill="#a7a9ac"/>
  <path d="M 789.044 312.894 C 792.904 313.845 796.608 315.344 800.044 317.344 C 803.48 319.288 806.669 321.639 809.544 324.344 C 812.415 327.025 814.947 330.048 817.084 333.344 C 818.161 334.967 819.139 336.654 820.014 338.394 C 820.458 339.254 820.852 340.139 821.194 341.044 L 822.294 343.724 C 820.509 340.33 818.431 337.098 816.084 334.064 C 813.777 331.046 811.137 328.299 808.214 325.874 C 805.351 323.409 802.226 321.266 798.894 319.484 C 797.244 318.583 795.549 317.768 793.814 317.044 C 792.107 316.284 790.353 315.633 788.564 315.094 L 789.044 312.894 Z" fill="#a7a9ac"/>
  <path d="M 800.874 302.274 C 795.064 302.944 797.604 306.644 797.604 306.644 C 797.604 306.644 789.754 301.374 798.804 299.994 C 803.866 299.646 808.885 301.13 812.944 304.174 C 812.944 304.174 806.594 301.804 800.874 302.274 Z" fill="#bcbec0"/>
  <path d="M 730.474 282.884 C 733.352 281.816 736.307 280.97 739.314 280.354 C 742.307 279.776 745.327 279.355 748.364 279.094 C 754.467 278.577 760.608 278.741 766.674 279.584 C 768.194 279.714 769.674 280.084 771.194 280.334 C 772.7 280.591 774.192 280.925 775.664 281.334 L 780.094 282.504 C 781.554 282.934 782.974 283.504 784.414 283.984 C 787.324 284.914 790.054 286.264 792.844 287.464 L 793.844 287.934 C 794.184 288.104 794.514 288.304 794.844 288.484 L 796.844 289.574 C 798.177 290.307 799.511 291.047 800.844 291.794 C 799.454 291.194 798.064 290.594 796.684 289.974 L 794.614 289.054 C 794.274 288.904 793.934 288.744 793.614 288.604 L 792.544 288.224 C 789.704 287.224 786.934 286.024 784.014 285.284 C 782.574 284.884 781.144 284.424 779.694 284.044 L 775.304 283.044 C 773.854 282.674 772.364 282.474 770.894 282.234 C 769.424 281.994 767.944 281.694 766.454 281.594 L 761.984 281.134 L 757.504 280.944 C 754.504 280.874 751.504 280.944 748.504 281.114 C 742.538 281.462 736.629 282.468 730.884 284.114 L 730.474 282.884 Z" fill="#a7a9ac"/>
  <path d="M 729.084 309.884 L 728.664 303.284 C 728.664 303.284 742.934 298.904 744.314 321.144 C 745.694 343.384 744.314 340.934 744.314 340.934 L 741.854 340.934 L 740.264 319.934 C 740.264 319.934 739.954 306.864 729.084 309.884 Z" fill="#bcbec0"/>
  <path d="M 769.084 345.034 C 769.084 345.034 773.504 337.384 780.474 341.244 C 781.956 342.082 783.218 343.262 784.154 344.684 C 785.754 347.104 787.804 351.684 787.334 359.034 C 787.334 359.034 784.874 336.834 771.874 347.934 L 769.084 345.034 Z" fill="#bcbec0"/>
  <path d="M 785.764 373.724 C 785.764 373.724 790.854 379.634 803.694 382.374 C 803.694 382.374 813.044 385.034 815.984 387.594 C 815.984 387.594 826.614 370.914 828.844 349.594 C 829.148 364.982 825.077 380.14 817.104 393.304 C 817.104 393.304 812.604 388.754 802.894 386.044 C 802.894 386.094 786.714 381.814 785.764 373.724 Z" fill="#bcbec0"/>
  <path d="M 753.234 312.954 C 753.234 312.954 755.164 306.214 759.624 306.644 C 759.624 306.644 764.974 307.524 766.154 310.974 C 766.154 310.974 762.874 302.684 758.584 303.654 C 758.584 303.654 754.834 303.284 753.234 312.954 Z" fill="#a7a9ac"/>
  <path d="M 777.364 321.974 C 777.364 321.974 780.174 314.874 785.034 319.904 C 785.034 319.904 783.454 315.594 780.194 315.794 C 780.144 315.794 776.804 316.394 777.364 321.974 Z" fill="#a7a9ac"/>
  <path d="M 372.284 446.614 C 372.284 446.614 380.414 450.194 401.614 449.374 L 401.614 414.194 L 386.364 413.424 C 386.364 413.424 381.904 417.054 379.204 417.924 C 379.234 417.924 379.784 436.464 372.284 446.614 Z" fill="#1d0075"/>
  <path d="M 372.284 446.614 C 372.284 446.614 380.414 450.194 401.614 449.374 L 401.614 414.194 L 386.364 413.424 C 386.364 413.424 381.904 417.054 379.204 417.924 C 379.234 417.924 379.784 436.464 372.284 446.614 Z" fill="#fff" opacity="0.5"/>
  <circle cx="622.674" cy="234.984" r="32.54" fill="#1d0075"/>
  <circle cx="622.674" cy="234.984" r="32.54" fill="#fff" opacity="0.9"/>
  <path d="M 505.714 114.844 L 515.604 115.434 L 516.604 152.904 L 506.934 152.154 C 506.934 152.154 516.364 124.344 505.714 114.844 Z" fill="#ed9015"/>
  <path d="M 503.224 111.634 C 503.224 111.634 508.714 107.514 510.634 104.764 C 510.634 104.764 512.554 101.004 519.694 101.104 L 529.584 96.254 C 529.584 96.254 542.214 91.034 548.254 103.944 L 530.364 103.424 C 523.481 105.681 517.448 109.978 513.064 115.744 L 507.854 115.744 C 507.854 115.744 507.064 113.824 503.224 111.634 Z" fill="#f7a48b"/>
  <path d="M 506.964 114.484 L 513.594 108.484 C 513.594 108.484 518.594 103.254 522.164 103.994 C 522.164 103.994 540.544 97.174 543.314 103.894 L 514.264 115.794 L 507.894 115.794 L 506.964 114.484 Z" fill="#f9b499"/>
  <path d="M 561.734 110.744 L 561.264 110.354 C 561.194 110.354 554.644 105.014 543.384 106.574 L 542.864 106.644 L 542.864 106.124 C 542.804 105.424 541.444 88.954 548.764 81.844 C 551.398 79.323 555.068 78.192 558.664 78.794 C 562.221 79.771 565.156 82.287 566.664 85.654 C 569.314 91.544 567.774 99.814 562.104 110.204 L 561.734 110.744 Z M 547.574 105.284 C 552.481 105.16 557.309 106.534 561.414 109.224 C 566.704 99.364 568.144 91.574 565.684 86.074 C 564.293 83.027 561.654 80.73 558.444 79.774 C 555.173 79.246 551.843 80.279 549.444 82.564 C 543.174 88.664 543.644 102.644 543.814 105.514 C 545.062 105.364 546.317 105.287 547.574 105.284 Z" fill="#ed9015"/>
  <ellipse cx="578.14" cy="318.59" rx="33.36" ry="10.74" transform="matrix(0.962123, -0.272616, 0.272616, 0.962123, -78.595923, 56.804094)" fill="#ed9015"/>
  <path d="M 470.754 183.834 C 470.754 183.834 502.054 197.574 525.754 237.954 L 456.364 241.094 L 449.544 190.094 L 470.754 183.834 Z" fill="#1d0075"/>
  <path d="M 470.754 183.834 C 470.754 183.834 502.054 197.574 525.754 237.954 L 456.364 241.094 L 449.544 190.094 L 470.754 183.834 Z" fill="#1d0075" opacity="0.8"/>
  <g opacity="0.36" transform="matrix(1, 0, 0, 1, -13.635982, -112.905922)">
    <path d="M484.39,296.74s31.3,13.74,55,54.12L470,354l-6.82-51Z" fill="#fff"/>
    <path d="M484.39,296.74s31.3,13.74,55,54.12L470,354l-6.82-51Z" fill="#fff" opacity="0.8"/>
  </g>
  <path d="M 398.604 220.174 C 398.604 220.174 380.434 218.084 385.274 208.174 C 385.274 208.174 387.754 203.694 398.494 202.424 L 398.604 220.174 Z" fill="#ed9015"/>
  <path d="M 454.174 204.974 C 454.174 204.974 458.344 204.974 460.974 206.734 L 456.664 218.734 L 454.174 204.974 Z" fill="#ed9015"/>
  <path d="M 129.914 162.164 C 129.914 162.164 101.604 106.014 186.994 82.514 C 186.994 82.514 197.074 121.644 234.994 115.744 C 234.994 115.744 246.994 107.594 219.164 89.294 C 219.164 89.294 203.814 81.764 197.574 79.984 C 197.574 79.984 238.844 65.374 257.784 89.294 C 261.572 95.359 263.963 102.191 264.784 109.294 C 264.784 109.294 267.274 125.444 276.594 126.634 C 276.594 126.634 288.774 128.044 280.594 99.514 C 280.594 99.514 269.594 83.664 264.764 79.964 C 264.764 79.964 305.004 80.334 307.914 103.964 C 307.914 103.964 301.224 145.114 320.414 152.964 C 320.414 152.964 337.684 152.514 322.814 114.664 C 322.814 114.664 319.934 104.144 314.654 99.594 C 314.654 99.594 362.004 134.114 369.274 207.404 L 371.274 232.724 L 350.334 239.814 C 350.334 239.814 302.504 231.654 281.944 228.374 C 281.944 228.374 270.054 226.484 265.734 215.934 C 265.734 215.934 290.734 215.934 299.324 203.374 C 301.06 200.96 301.06 197.708 299.324 195.294 C 297.074 192.294 292.414 189.524 283.044 194.344 C 283.044 194.344 220.684 236.574 200.534 202.504 C 200.534 202.504 270.534 188.594 263.374 167.964 C 263.374 167.964 260.014 158.964 234.594 172.104 C 234.594 172.104 157.474 220.014 138.534 168.944 C 138.534 168.944 167.534 165.864 172.134 152.254 C 173.406 148.67 170.978 144.842 167.194 144.464 C 164.004 144.134 159.034 144.894 151.304 148.344 C 151.204 148.284 137.424 155.454 129.914 162.164 Z" fill="#d1d3d4"/>
  <ellipse cx="449.11" cy="233.57" rx="46.27" ry="79.14" transform="matrix(0.984686, -0.174336, 0.174336, 0.984686, -47.475995, -31.055929)" fill="#f9b499"/>
  <path d="M 350.274 172.094 C 350.274 172.094 342.624 192.094 356.364 201.954 C 358.281 203.301 360.493 204.169 362.814 204.484 C 369.514 205.484 385.534 206.174 398.634 194.554 L 398.254 156.954 C 398.254 156.954 389.884 165.704 376.684 149.234 C 376.684 149.234 372.634 142.004 372.074 138.894 C 372.044 138.894 350.274 161.884 350.274 172.094 Z" fill="#1d0075"/>
  <path d="M 350.274 172.094 C 350.274 172.094 342.624 192.094 356.364 201.954 C 358.281 203.301 360.493 204.169 362.814 204.484 C 369.514 205.484 385.534 206.174 398.634 194.554 L 398.254 156.954 C 398.254 156.954 389.884 165.704 376.684 149.234 C 376.684 149.234 372.634 142.004 372.074 138.894 C 372.044 138.894 350.274 161.884 350.274 172.094 Z" opacity="0.2"/>
  <path d="M 386.824 158.094 C 386.824 158.094 383.224 167.624 369.224 175.864 C 369.224 175.864 383.224 171.194 390.644 161.584 C 389.226 169.29 385.489 176.379 379.934 181.904 C 379.934 181.904 390.094 186.574 398.604 184.654 L 398.224 156.934 C 398.224 156.934 393.834 161.284 386.824 158.094 Z" fill="#ed9015"/>
  <path d="M 450.634 42.014 C 450.634 42.014 454.234 42.254 455.454 44.394 C 455.454 44.394 462.804 36.284 467.704 43.674 C 468.832 45.498 469.653 47.494 470.134 49.584 C 470.134 49.584 484.194 49.024 470.134 61.534 C 470.134 61.534 466.194 58.214 457.134 58.944 C 457.134 58.944 446.134 61.434 436.414 60.554 C 436.424 60.554 432.494 40.564 450.634 42.014 Z" fill="#ed9015"/>
  <path d="M 384.424 53.744 C 384.424 53.744 384.424 48.104 391.424 45.584 C 391.424 45.584 396.424 44.734 400.274 47.084 L 394.614 53.744 L 384.424 53.744 Z" fill="#ed9015"/>
  <path d="M 398.604 220.174 L 398.224 156.954 C 398.224 156.954 416.384 205.334 452.854 197.704 L 457.464 223.094 C 457.464 223.094 456.664 240.174 456.004 247.944 C 456.004 247.944 444.224 221.674 432.334 221.634 L 398.604 220.174 Z" fill="#f9b499"/>
  <path d="M 398.224 156.954 C 398.224 156.954 401.794 208.454 456.664 218.704 L 452.854 197.704 C 452.854 197.704 420.224 210.144 398.224 156.954 Z" fill="#f7a48b"/>
  <path d="M 404.924 414.364 L 340.254 411.094 L 348.144 350.094 C 339.144 364.504 315.144 386.664 315.144 386.664 L 360.484 382.664 C 346.844 393.774 349.724 411.094 349.724 411.094 C 350.964 442.804 368.264 449.394 368.264 449.394 C 357.554 457.224 329.954 457.224 329.954 457.224 L 242.634 453.514 C 219.574 448.984 217.514 433.744 217.514 433.744 C 209.274 412.744 237.284 376.494 237.284 376.494 L 291.974 290.554 C 295.093 285.707 297.844 280.633 300.204 275.374 C 316.894 237.504 350.274 239.774 350.274 239.774 L 382.064 223.094 C 380.314 214.914 385.274 208.194 385.274 208.194 C 385.274 208.194 377.444 219.744 411.394 220.734 L 432.334 221.634 C 432.334 221.634 440.744 220.254 449.604 235.134 L 456.004 247.944 L 457.464 223.094 L 456.664 218.704 L 460.974 206.704 C 460.974 206.704 471.374 204.414 474.114 227.754 C 474.114 227.754 526.014 226.654 544.684 253.014 L 532.604 214.574 C 532.604 214.574 541.664 225.694 569.674 213.744 C 573.384 213.744 588.204 206.744 596.444 197.274 L 620.744 267.274 L 519.424 433.644 L 404.924 414.364 Z" fill="#1d0075"/>
  <path d="M 348.144 350.094 L 377.734 313.094 C 377.734 313.094 354.114 378.314 343.684 384.624 L 348.144 350.094 Z" opacity="0.2"/>
  <path d="M 368.264 449.374 C 368.264 449.374 378.504 448.204 379.264 417.924 C 379.264 417.924 358.534 426.134 351.934 426.404 C 351.904 426.404 355.464 442.514 368.264 449.374 Z" fill="#ed9015"/>
  <path d="M 360.434 382.654 L 360.434 385.944 L 352.704 392.444 C 352.704 392.444 357.364 385.094 360.434 382.654 Z" fill="#ed9015"/>
  <path d="M 503.224 155.564 C 503.224 155.564 521.074 178.904 537.544 177.804 C 537.544 177.804 552.694 194.514 555.004 218.704 C 555.004 218.704 580.534 210.634 586.814 205.704 C 580.879 194.824 576.934 182.971 575.164 170.704 C 575.164 170.704 571.594 153.094 569.364 151.444 L 546.364 160.234 L 508.744 148.974 C 508.744 148.974 506.794 153.914 503.224 155.564 Z" fill="#f9b499"/>
  <path d="M 381.724 226.314 C 381.724 226.314 376.864 254.194 395.674 274.314 C 395.674 274.314 404.034 248.374 431.674 229.884 C 431.674 229.884 413.194 235.744 394.674 258.274 C 394.694 258.264 383.184 248.784 381.724 226.314 Z" opacity="0.2"/>
  <path d="M 471.874 244.794 C 471.874 244.794 463.704 221.034 469.414 211.794 C 472.103 216.713 473.706 222.152 474.114 227.744 L 471.874 244.794 Z" opacity="0.2"/>
  <circle cx="449.584" cy="254.284" r="3.98" opacity="0.2"/>
  <polygon points="552.434 241.994 477.414 281.074 477.414 490.844 552.434 452.464 552.434 241.994" fill="#e6e7e8"/>
  <polygon points="627.844 490.844 552.434 452.464 552.434 241.994 627.844 282.444 627.844 490.844" fill="#1d0075"/>
  <polygon points="627.844 490.844 552.434 452.464 552.434 241.994 627.844 282.444 627.844 490.844" fill="#fff" opacity="0.8"/>
  <polygon points="627.844 282.444 691.594 250.304 691.594 433.644 627.844 490.844 627.844 282.444" fill="#e6e7e8"/>
  <path d="M 692.364 211.314 L 692.364 340.314 L 607.544 340.314 L 624.984 312.244 C 629.784 304.509 627.819 294.382 620.474 289.004 C 612.348 283.042 600.873 285.204 595.474 293.714 L 559.964 349.344 C 552.666 360.777 560.482 375.823 574.033 376.427 C 574.293 376.438 574.553 376.444 574.814 376.444 L 693.814 376.444 L 693.814 432.444 C 693.814 441.999 701.559 449.744 711.114 449.744 C 720.669 449.744 728.414 441.999 728.414 432.444 L 728.414 376.444 L 757.834 377.004 C 767.745 377.032 775.794 369.005 775.794 359.094 C 775.794 349.197 767.771 341.174 757.874 341.174 L 728.874 340.604 L 729.284 195.214 C 729.273 178.142 715.436 164.305 698.364 164.294 C 687.644 164.294 674.824 169.244 669.184 178.354 L 644.184 220.944 C 639.267 228.698 641.702 238.979 649.574 243.704 C 656.667 247.95 665.813 246.233 670.884 239.704 L 692.364 211.314 Z" fill="#1d0075"/>
  <path d="M 692.364 211.314 L 692.364 340.314 L 607.544 340.314 L 624.984 312.244 C 629.784 304.509 627.819 294.382 620.474 289.004 C 612.348 283.042 600.873 285.204 595.474 293.714 L 559.964 349.344 C 552.666 360.777 560.482 375.823 574.033 376.427 C 574.293 376.438 574.553 376.444 574.814 376.444 L 693.814 376.444 L 693.814 432.444 C 693.814 441.999 701.559 449.744 711.114 449.744 C 720.669 449.744 728.414 441.999 728.414 432.444 L 728.414 376.444 L 757.834 377.004 C 767.745 377.032 775.794 369.005 775.794 359.094 C 775.794 349.197 767.771 341.174 757.874 341.174 L 728.874 340.604 L 729.284 195.214 C 729.273 178.142 715.436 164.305 698.364 164.294 C 687.644 164.294 674.824 169.244 669.184 178.354 L 644.184 220.944 C 639.267 228.698 641.702 238.979 649.574 243.704 C 656.667 247.95 665.813 246.233 670.884 239.704 L 692.364 211.314 Z" fill="#fff" opacity="0.36"/>
  <circle cx="635.164" cy="266.914" r="11.33" fill="#ed9015"/>
  <path d="M 545.014 162.414 C 545.014 162.414 514.884 167.044 510.774 145.234 C 514.216 137.392 514.15 128.455 510.594 120.664 C 510.153 118.636 511.203 116.577 513.104 115.744 C 513.104 115.744 519.694 104.824 530.404 103.424 L 548.934 103.944 L 545.014 162.414 Z" fill="#1d0075"/>
  <path d="M 450.614 114.604 C 450.614 114.604 423.174 116.664 424.274 133.174 C 424.274 133.174 421.774 147.914 452.274 152.904 L 450.614 114.604 Z" fill="#1d0075"/>
  <path d="M 532.704 252.614 L 531.704 252.434 L 541.184 199.714 C 543.424 182.034 551.864 162.164 551.954 161.964 L 552.874 162.354 C 552.784 162.554 544.404 182.304 542.164 199.864 L 532.704 252.614 Z" fill="#ed9015"/>
  <path d="M 477.664 190.504 L 477.154 189.644 C 477.264 189.574 488.814 182.704 501.764 180.424 C 506.455 179.641 511.24 179.601 515.944 180.304 C 524.514 181.514 553.004 183.564 560.004 159.424 L 561.004 159.694 C 553.784 184.624 524.614 182.534 515.854 181.294 C 511.253 180.611 506.573 180.651 501.984 181.414 C 489.164 183.654 477.784 190.434 477.664 190.504 Z" fill="#ed9015"/>
  <circle cx="552.584" cy="515.484" r="17.51" fill="#1d0075"/>
  <path d="M 133.614 159.164 C 133.614 159.164 116.294 122.384 152.074 97.234 C 152.074 97.234 113.154 118.374 129.914 162.164 L 133.614 159.164 Z" fill="#bcbec0"/>
  <path d="M 165.204 144.164 C 165.204 144.164 176.544 140.164 179.114 145.674 C 179.659 146.889 179.659 148.279 179.114 149.494 C 177.254 153.744 169.444 165.214 138.474 168.884 C 138.474 168.884 169.634 166.884 172.384 149.954 C 172.364 149.954 174.264 145.814 165.204 144.164 Z" fill="#bcbec0"/>
  <path d="M 194.854 185.094 C 157.374 197.264 138.434 168.844 138.434 168.844 C 138.434 168.844 145.484 200.574 189.324 190.574 C 189.324 190.574 204.244 187.754 224.024 177.754 C 224.024 177.754 240.844 168.184 246.784 166.674 C 246.784 166.674 226.164 173.784 206.784 180.994 C 206.804 181.034 199.714 183.754 194.854 185.094 Z" fill="#bcbec0"/>
  <path d="M 250.634 165.634 C 250.634 165.634 264.184 159.504 268.174 165.304 C 268.387 165.609 268.549 165.947 268.654 166.304 C 269.114 168.054 269.214 172.924 259.504 179.374 C 259.504 179.374 265.584 174.724 263.274 167.874 C 263.274 167.904 261.714 163.814 250.634 165.634 Z" fill="#bcbec0"/>
  <path d="M 300.254 197.304 C 297.464 187.144 282.944 194.304 282.944 194.304 C 271.944 202.554 250.634 210.664 250.634 210.664 C 211.634 226.204 200.434 202.464 200.434 202.464 C 200.434 202.464 216.584 220.934 250.634 207.204 L 281.084 192.584 C 281.084 192.584 301.944 181.674 303.594 199.514 C 303.594 199.514 304.424 204.324 297.094 205.924 C 299.916 204.049 301.196 200.559 300.254 197.304 Z" fill="#bcbec0"/>
  <path d="M 320.364 152.904 C 320.364 152.904 333.874 158.624 332.364 139.454 C 332.364 139.454 330.994 122.194 320.364 107.644 C 320.364 107.644 339.294 149.994 320.364 152.904 Z" fill="#bcbec0"/>
  <path d="M 163.834 125.904 C 183.747 125.843 203.624 127.58 223.224 131.094 C 242.907 134.448 262.142 140.041 280.554 147.764 C 289.754 151.701 298.597 156.425 306.984 161.884 C 315.407 167.346 323.172 173.762 330.124 181.004 C 330.994 181.914 331.854 182.824 332.674 183.784 C 333.494 184.744 334.344 185.654 335.134 186.644 L 336.364 188.094 C 336.774 188.574 337.144 189.094 337.514 189.604 L 339.704 192.604 C 342.591 196.671 345.391 200.801 348.104 204.994 C 350.794 209.194 353.384 213.474 355.764 217.884 C 358.253 222.287 360.29 226.931 361.844 231.744 L 359.634 232.374 C 358.095 227.758 356.095 223.309 353.664 219.094 C 351.304 214.774 348.714 210.554 346.034 206.394 C 343.354 202.234 340.584 198.094 337.724 194.094 L 335.554 191.094 C 335.174 190.584 334.854 190.094 334.454 189.644 L 333.284 188.224 C 332.524 187.224 331.714 186.344 330.894 185.424 C 330.074 184.504 329.254 183.594 328.404 182.704 C 321.601 175.561 314.009 169.214 305.774 163.784 C 297.526 158.335 288.828 153.601 279.774 149.634 C 261.674 141.634 242.474 136.164 223.014 132.344 C 213.274 130.444 203.461 128.964 193.574 127.904 C 183.694 126.774 173.774 126.024 163.834 125.904 Z" fill="#a7a9ac"/>
  <path d="M 223.494 166.714 C 229.742 163.4 236.326 160.762 243.134 158.844 C 249.947 156.86 256.936 155.544 264.004 154.914 C 271.092 154.268 278.233 154.5 285.264 155.604 C 292.275 156.687 299.064 158.903 305.364 162.164 C 298.79 159.772 291.956 158.167 285.004 157.384 C 284.144 157.274 283.274 157.174 282.404 157.124 L 279.814 156.924 C 278.074 156.854 276.334 156.754 274.594 156.774 C 271.119 156.729 267.644 156.869 264.184 157.194 C 257.236 157.802 250.343 158.931 243.564 160.574 C 236.749 162.188 230.045 164.239 223.494 166.714 Z" fill="#a7a9ac"/>
  <path d="M 246.784 120.664 C 247.104 120.746 247.392 120.92 247.614 121.164 C 247.856 121.386 248.083 121.623 248.294 121.874 C 248.734 122.364 249.124 122.874 249.524 123.384 L 251.874 126.504 C 253.424 128.584 255.004 130.644 256.674 132.614 C 258.323 134.582 260.1 136.44 261.994 138.174 C 263.842 139.891 265.882 141.387 268.074 142.634 L 266.894 144.634 C 264.667 143.146 262.62 141.404 260.794 139.444 C 258.996 137.529 257.326 135.498 255.794 133.364 C 254.254 131.244 252.794 129.064 251.424 126.874 L 249.314 123.594 C 248.954 123.054 248.594 122.514 248.204 122.004 C 248.011 121.743 247.804 121.492 247.584 121.254 C 247.383 120.981 247.104 120.775 246.784 120.664 Z" fill="#a7a9ac"/>
  <path d="M 203.074 144.164 C 207.241 142.778 211.477 141.607 215.764 140.654 C 217.904 140.174 220.064 139.754 222.224 139.344 C 224.384 138.934 226.564 138.614 228.754 138.344 C 233.127 137.731 237.538 137.426 241.954 137.434 C 246.393 137.396 250.809 138.071 255.034 139.434 C 250.624 139.204 246.314 139.304 241.984 139.504 C 237.654 139.704 233.334 140.024 228.984 140.504 C 224.634 140.984 220.334 141.504 215.984 142.164 C 211.634 142.824 207.364 143.474 203.074 144.164 Z" fill="#a7a9ac"/>
  <ellipse cx="197.01" cy="221.33" rx="7.27" ry="15.73" transform="matrix(0.594963, -0.803753, 0.803753, 0.594963, -111.725965, 135.114074)" fill="#bcbec0"/>
  <ellipse cx="177.24" cy="226.14" rx="5.22" ry="9.63" transform="matrix(0.465769, -0.884906, 0.884906, 0.465769, -119.055988, 164.764086)" fill="#bcbec0"/>
  <ellipse cx="227.38" cy="269.99" rx="26.32" ry="9.88" transform="matrix(0.962739, -0.270432, 0.270432, 0.962739, -78.195983, -41.33593)" fill="#bcbec0"/>
  <path d="M 306.654 255.864 C 306.654 255.864 316.744 240.784 322.504 235.044 C 322.504 235.044 289.834 230.044 281.884 228.314 L 306.654 255.864 Z" fill="#ed9015"/>
  <path d="M 699.664 469.684 C 668.664 469.684 655.024 454.444 654.844 454.244 C 651.224 450.524 648.091 447.031 645.444 443.764 C 641.06 447.646 636.379 451.181 631.444 454.334 C 610.244 463.664 592.444 465.074 578.544 458.564 C 561.824 450.754 556.804 433.954 556.754 433.784 L 557.684 433.514 C 557.684 433.684 562.684 450.074 578.964 457.704 C 592.624 464.084 610.124 462.704 630.964 453.484 C 635.843 450.344 640.473 446.833 644.814 442.984 C 637.654 433.984 634.384 426.754 635.074 421.494 C 635.407 418.734 637.048 416.303 639.484 414.964 C 643.144 412.87 647.651 412.92 651.264 415.094 C 655.514 417.554 657.694 420.714 657.754 424.494 C 657.854 430.694 652.224 437.544 646.144 443.114 C 648.771 446.367 651.904 449.861 655.544 453.594 C 655.794 453.884 679.424 480.114 735.354 462.834 C 737.532 462.159 739.675 461.374 741.774 460.484 C 755.694 454.554 802.104 435.284 814.634 436.324 L 814.554 437.324 C 801.914 436.324 752.024 457.204 742.144 461.404 C 740.02 462.312 737.85 463.11 735.644 463.794 C 721.724 468.094 709.764 469.684 699.664 469.684 Z M 645.174 414.384 C 643.348 414.376 641.555 414.863 639.984 415.794 C 637.808 416.984 636.341 419.152 636.044 421.614 C 635.384 426.614 638.564 433.614 645.534 442.334 C 651.444 436.914 656.894 430.334 656.804 424.504 C 656.754 421.094 654.724 418.204 650.804 415.924 C 649.096 414.924 647.153 414.393 645.174 414.384 L 645.174 414.384 Z" fill="#1d0075"/>
  <g opacity="0.25" transform="matrix(1, 0, 0, 1, -13.635982, -112.905922)">
    <path d="M713.3,582.59c-31,0-44.64-15.24-44.82-15.44q-5.43-5.58-9.4-10.48a112.5,112.5,0,0,1-14,10.57c-21.2,9.33-39,10.74-52.9,4.23-16.72-7.81-21.74-24.61-21.79-24.78l.93-.27c0,.17,5,16.56,21.28,24.19,13.66,6.38,31.16,5,52-4.22a113.34,113.34,0,0,0,13.85-10.5c-7.16-9-10.43-16.23-9.74-21.49a8.63,8.63,0,0,1,4.41-6.53,11.64,11.64,0,0,1,11.78.13c4.25,2.46,6.43,5.62,6.49,9.4.1,6.2-5.53,13.05-11.61,18.62q3.94,4.88,9.4,10.48c.25.29,23.88,26.52,79.81,9.24a68.13,68.13,0,0,0,6.42-2.35c13.92-5.93,60.33-25.2,72.86-24.16l-.08,1c-12.64-1-62.53,19.88-72.41,24.08a67.19,67.19,0,0,1-6.5,2.39C735.36,581,723.4,582.59,713.3,582.59Zm-54.49-55.3a10.09,10.09,0,0,0-5.19,1.41,7.68,7.68,0,0,0-3.94,5.82c-.66,5,2.52,12,9.49,20.72,5.91-5.42,11.36-12,11.27-17.83-.05-3.41-2.08-6.3-6-8.58A11.25,11.25,0,0,0,658.81,527.29Z" fill="#fff"/>
  </g>
  <path d="M 514.924 402.144 C 514.924 402.144 521.924 405.144 527.924 396.144 C 527.924 396.144 531.274 383.524 541.104 382.734 C 541.104 382.734 538.364 388.454 541.104 393.944 C 541.104 393.944 544.294 413.444 528.004 405.484 C 528.014 405.444 521.674 413.954 514.924 402.144 Z" fill="#ed9015"/>
  <path d="M 381.064 111.994 C 381.064 111.994 350.894 68.834 384.424 53.744 C 390.374 50.774 396.538 48.254 402.864 46.204 C 402.864 46.204 417.944 38.204 421.294 34.884 C 421.294 34.884 440.384 20.464 450.634 42.014 C 450.634 42.014 433.754 40.014 436.424 60.554 C 436.424 60.554 442.604 61.554 453.934 59.554 C 453.934 59.554 476.794 52.964 477.414 78.504 C 477.414 78.504 465.464 65.324 445.284 72.944 C 445.284 72.944 429.634 76.784 424.964 85.024 C 424.964 85.024 415.354 85.844 410.684 98.484 C 410.684 98.484 386.794 128.964 378.284 132.484 C 378.284 132.484 353.284 156.374 350.284 172.034 C 350.274 172.094 355.844 142.564 381.064 111.994 Z" fill="#1d0075"/>
  <path d="M 436.234 76.154 C 431.468 77.525 426.386 75.427 423.974 71.094 C 422.486 68.825 422.069 66.017 422.834 63.414 C 423.684 60.922 425.536 58.899 427.944 57.834 C 427.944 57.834 422.284 69.204 431.364 72.224 C 432.241 72.496 433.148 72.66 434.064 72.714 C 436.864 72.924 443.914 73.384 445.284 72.904 C 442.152 73.634 439.115 74.725 436.234 76.154 Z" fill="#ed9015"/>
  <g opacity="0.2" transform="matrix(1, 0, 0, 1, -13.635982, -112.905922)">
    <path d="M400.46,165.46a56,56,0,0,0-2.55,14.09,59.64,59.64,0,0,0,.75,14.25,62,62,0,0,0,3.88,13.74,63.74,63.74,0,0,0,3,6.52l.39.81.45.77.91,1.55,1.81,3.12-2-3-1-1.5-.51-.75-.44-.79a64,64,0,0,1-3.26-6.46c-.47-1.11-1-2.21-1.39-3.34L399.33,201a32.32,32.32,0,0,1-.92-3.51,36,36,0,0,1-.73-3.55l-.49-3.6-.24-3.63a56.64,56.64,0,0,1,.19-7.25,61.76,61.76,0,0,1,1.11-7.15A43.42,43.42,0,0,1,400.46,165.46Z"/>
  </g>
  <circle cx="436.104" cy="65.814" r="2.24" opacity="0.2"/>
  <circle cx="452.854" cy="63.574" r="2.24" opacity="0.2"/>
  <circle cx="470.424" cy="68.054" r="2.24" opacity="0.2"/>
  <g opacity="0.2" transform="matrix(1, 0, 0, 1, -13.635982, -112.905922)">
    <path d="M447.5,174.25a20.11,20.11,0,0,1-1.14-7.82,16.2,16.2,0,0,1,2.26-7.67,15.09,15.09,0,0,1,5.84-5.46,21,21,0,0,1,3.67-1.55c.64-.2,1.28-.33,1.92-.5s1.3-.24,1.95-.34a28.75,28.75,0,0,0-7.15,3.05c-.56.32-1.05.74-1.58,1.09a15.8,15.8,0,0,0-1.43,1.27,13.83,13.83,0,0,0-2.37,3,17.48,17.48,0,0,0-2.35,7.21,22.73,22.73,0,0,0-.1,3.87A24.47,24.47,0,0,0,447.5,174.25Z"/>
  </g>
  <ellipse cx="400.46" cy="252.36" rx="13.76" ry="21.05" transform="matrix(0.892743, -0.450566, 0.450566, 0.892743, -84.385991, 94.63407)" fill="#f9b499"/>
  <polygon points="401.614 241.994 401.614 449.374 477.414 490.844 477.414 281.074 401.614 241.994" fill="#1d0075"/>
  <polygon points="401.614 241.994 401.614 449.374 477.414 490.844 477.414 281.074 401.614 241.994" fill="#fff" opacity="0.8"/>
  <path d="M 352.704 392.444 C 359.568 387.784 365.171 381.497 369.014 374.144 L 381.014 352.614 C 381.014 352.614 382.504 341.674 398.184 341.304 C 398.184 341.304 432.974 328.804 451.354 339.414 C 453.835 340.874 453.805 344.473 451.3 345.892 C 451.135 345.986 450.962 346.067 450.784 346.134 C 447.922 347.001 444.927 347.34 441.944 347.134 C 441.944 347.134 416.044 344.214 412.394 351.514 C 412.394 351.514 466.024 352.244 462.744 358.074 C 462.744 358.074 467.854 367.204 409.534 363.864 C 408.56 363.821 407.764 364.631 407.824 365.604 C 407.883 366.486 408.63 367.163 409.514 367.134 C 418.324 366.804 460.784 365.624 459.464 374.134 C 459.464 374.134 464.364 379.324 411.544 377.204 C 411.417 377.236 411.372 377.393 411.463 377.487 C 411.485 377.51 411.513 377.526 411.544 377.534 L 440.164 381.424 C 440.164 381.424 450.744 381.134 450.014 384.564 C 450.014 384.564 452.204 390.564 431.774 389.454 L 407.974 390.554 C 407.974 390.554 396.814 418.094 351.904 426.404 C 351.904 426.404 346.244 406.734 352.704 392.444 Z" fill="#f9b499"/>
  <path d="M 452.264 114.604 C 452.264 114.604 451.914 114.154 447.704 114.964 C 447.704 114.964 439.704 137.674 449.984 152.504 C 449.984 152.504 453.664 153.274 454.284 153.274 L 452.264 114.604 Z" fill="#ed9015"/>
  <path d="M 484.834 103.944 C 484.834 103.944 459.614 99.414 450.614 114.604 C 450.614 114.604 443.714 122.244 447.094 140.914 C 448.108 146.85 451.07 152.28 455.514 156.344 C 460.514 160.844 468.514 164.594 480.054 161.584 L 484.834 103.944 Z" fill="#1d0075"/>
  <path d="M 508.934 133.174 C 508.934 146.444 499.404 157.174 487.644 157.174 C 486.852 157.174 486.06 157.124 485.274 157.024 C 474.634 155.694 466.374 145.514 466.374 133.154 C 466.374 120.794 474.634 110.624 485.274 109.294 C 486.06 109.189 486.851 109.139 487.644 109.144 C 499.364 109.164 508.934 119.914 508.934 133.174 Z" fill="#e6e7e8"/>
  <path d="M 485.274 109.444 C 495.914 110.774 504.174 120.954 504.174 133.304 C 504.174 145.404 496.254 155.384 485.954 157.054 C 486.514 157.104 487.074 157.134 487.644 157.134 C 499.404 157.134 508.934 146.384 508.934 133.134 C 508.934 119.884 499.404 109.134 487.644 109.134 C 486.852 109.134 486.06 109.184 485.274 109.284" fill="#ed9015"/>
  <path d="M 486.824 103.944 C 472.034 103.944 460.044 117.034 460.044 133.174 C 460.044 149.314 472.044 162.414 486.824 162.414 C 501.604 162.414 513.594 149.324 513.594 133.174 C 513.594 117.024 501.614 103.944 486.824 103.944 Z M 487.644 157.194 C 486.851 157.196 486.059 157.142 485.274 157.034 C 474.634 155.714 466.374 145.534 466.374 133.174 C 466.374 120.814 474.634 110.634 485.274 109.314 C 486.059 109.206 486.851 109.152 487.644 109.154 C 499.404 109.154 508.934 119.914 508.934 133.154 C 508.934 146.394 499.364 157.194 487.644 157.194 Z" fill="#1d0075"/>
  <path d="M 486.824 103.944 C 472.034 103.944 460.044 117.034 460.044 133.174 C 460.044 149.314 472.044 162.414 486.824 162.414 C 501.604 162.414 513.594 149.324 513.594 133.174 C 513.594 117.024 501.614 103.944 486.824 103.944 Z M 487.644 157.194 C 486.851 157.196 486.059 157.142 485.274 157.034 C 474.634 155.714 466.374 145.534 466.374 133.174 C 466.374 120.814 474.634 110.634 485.274 109.314 C 486.059 109.206 486.851 109.152 487.644 109.154 C 499.404 109.154 508.934 119.914 508.934 133.154 C 508.934 146.394 499.364 157.194 487.644 157.194 Z" fill="#fff" opacity="0.8"/>
  <path d="M 420.024 95.704 C 420.024 95.704 404.924 140.464 352.194 144.164 C 352.194 144.164 369.114 140.294 376.644 134.064 C 377.814 133.064 378.994 132.164 380.234 131.284 C 383.954 128.634 393.304 120.684 410.684 98.454 C 410.684 98.454 414.254 86.364 424.964 84.994 C 424.964 84.994 428.264 76.994 445.284 72.914 C 445.284 72.914 464.044 64.404 477.414 78.474 C 482.137 84.182 488.977 87.727 496.364 88.294 C 496.364 88.294 486.864 110.634 466.364 98.194 C 465.077 97.446 463.517 97.331 462.134 97.884 C 458.714 99.194 451.344 100.264 441.634 91.704 C 441.023 91.14 440.128 91.013 439.384 91.384 C 438.764 91.724 438.384 92.384 439.514 93.784 C 439.514 93.784 451.624 101.044 435.514 99.274 C 435.474 99.274 426.364 99.004 420.024 95.704 Z" fill="#ed9015"/>
  <path d="M 434.874 76.564 C 442.15 79.225 449.098 82.707 455.584 86.944 C 457.746 88.361 459.78 89.964 461.664 91.734 C 465.004 94.864 471.664 100.534 477.414 101.944 C 477.414 101.944 485.844 103.484 493.214 93.504 C 493.214 93.504 476.634 94.504 464.744 86.114 C 463.413 85.198 462.012 84.389 460.554 83.694 C 455.364 81.184 444.584 76.544 434.874 76.564 Z" opacity="0.2"/>
  <path d="M 571.054 133.174 C 571.054 146.444 561.514 157.174 549.764 157.174 C 548.963 157.199 548.161 157.172 547.364 157.094 C 536.734 155.764 528.464 145.584 528.464 133.224 C 528.464 120.864 536.734 110.694 547.364 109.364 C 548.153 109.259 548.948 109.209 549.744 109.214 C 561.514 109.164 571.054 119.914 571.054 133.174 Z" fill="#e6e7e8"/>
  <path d="M 547.364 109.444 C 558.004 110.774 566.274 120.954 566.274 133.304 C 566.274 145.404 558.354 155.384 548.044 157.054 C 548.604 157.104 549.174 157.134 549.744 157.134 C 561.494 157.134 571.034 146.384 571.034 133.134 C 571.034 119.884 561.494 109.134 549.744 109.134 C 548.948 109.134 548.153 109.184 547.364 109.284" fill="#ed9015"/>
  <path d="M 548.934 103.944 C 534.154 103.944 522.164 117.034 522.164 133.174 C 522.164 149.314 534.164 162.414 548.934 162.414 C 563.704 162.414 575.714 149.324 575.714 133.174 C 575.714 117.024 563.724 103.944 548.934 103.944 Z M 549.764 157.194 C 548.968 157.196 548.173 157.143 547.384 157.034 C 536.754 155.714 528.484 145.534 528.484 133.174 C 528.484 120.814 536.754 110.634 547.384 109.314 C 548.173 109.205 548.968 109.152 549.764 109.154 C 561.514 109.154 571.054 119.914 571.054 133.154 C 571.054 146.394 561.514 157.194 549.764 157.194 L 549.764 157.194 Z" fill="#1d0075"/>
  <path d="M 548.934 103.944 C 534.154 103.944 522.164 117.034 522.164 133.174 C 522.164 149.314 534.164 162.414 548.934 162.414 C 563.704 162.414 575.714 149.324 575.714 133.174 C 575.714 117.024 563.724 103.944 548.934 103.944 Z M 549.764 157.194 C 548.968 157.196 548.173 157.143 547.384 157.034 C 536.754 155.714 528.484 145.534 528.484 133.174 C 528.484 120.814 536.754 110.634 547.384 109.314 C 548.173 109.205 548.968 109.152 549.764 109.154 C 561.514 109.154 571.054 119.914 571.054 133.154 C 571.054 146.394 561.514 157.194 549.764 157.194 L 549.764 157.194 Z" fill="#fff" opacity="0.8"/>
  <path d="M 127.304 430.144 C 104.504 430.144 87.914 425.674 76.304 420.414 C 51.304 409.114 43.204 391.804 43.124 391.634 L 44.004 391.234 C 44.084 391.404 52.104 408.434 76.774 419.574 C 99.584 429.864 141.664 437.084 212.664 413.034 C 224.398 409.03 235.914 404.414 247.164 399.204 C 268.044 389.564 323.624 365.354 388.724 348.684 C 469.884 327.894 537.104 325.684 588.504 342.194 L 588.204 343.104 C 469.264 304.974 297.364 377.094 247.564 400.094 C 236.28 405.316 224.731 409.945 212.964 413.964 C 177.724 425.884 149.554 430.144 127.304 430.144 Z" fill="#1d0075"/>
  <g opacity="0.25" transform="matrix(1, 0, 0, 1, -13.635982, -112.905922)">
    <path d="M140.94,543.05c-22.8,0-39.39-4.47-51-9.73-25-11.3-33.1-28.61-33.18-28.78l.88-.4c.08.17,8.1,17.2,32.77,28.34,22.81,10.29,64.89,17.51,135.89-6.54a354.59,354.59,0,0,0,34.5-13.83c20.88-9.64,76.46-33.85,141.56-50.52,81.16-20.79,148.38-23,199.78-6.49l-.3.91C482.9,417.88,311,490,261.2,513a357.66,357.66,0,0,1-34.6,13.87C191.36,538.79,163.19,543.05,140.94,543.05Z" fill="#fff"/>
  </g>
  <path d="M 281.884 228.314 L 306.654 255.864 C 306.654 255.864 287.224 288.644 298.084 336.534 C 298.084 336.534 302.344 359.844 328.954 385.424 L 285.774 389.024 C 285.774 389.024 261.554 373.654 258.064 307.934 C 258.064 307.934 253.304 270.324 281.884 228.314 Z" fill="#1d0075"/>
  <path d="M 281.884 228.314 L 306.654 255.864 C 306.654 255.864 287.224 288.644 298.084 336.534 C 298.084 336.534 302.344 359.844 328.954 385.424 L 285.774 389.024 C 285.774 389.024 261.554 373.654 258.064 307.934 C 258.064 307.934 253.304 270.324 281.884 228.314 Z" fill="#fff" opacity="0.36"/>
  <path d="M 209.794 383.144 C 201.78 383.238 193.848 381.529 186.584 378.144 C 176.93 373.657 170.377 364.391 169.364 353.794 C 168.574 344.194 172.544 331.404 195.904 324.934 C 197.454 324.104 219.494 313.624 292.904 343.554 C 300.275 337.547 307.313 331.14 313.984 324.364 C 379.924 267.704 422.894 180.204 430.834 163.244 C 432.124 160.484 433.514 157.814 434.704 155.574 C 454.704 117.774 438.164 97.754 437.994 97.574 L 438.754 96.914 C 438.934 97.124 455.914 117.614 435.584 156.054 C 434.404 158.284 433.024 160.934 431.744 163.674 C 423.744 180.674 380.744 268.334 314.674 325.104 C 308.108 331.765 301.192 338.071 293.954 343.994 C 299.494 346.267 305.327 348.777 311.454 351.524 C 313.074 352.254 314.674 352.914 316.204 353.524 C 326.374 357.394 360.744 370.144 375.774 371.894 L 375.654 372.894 C 360.504 371.124 326.054 358.344 315.854 354.464 C 314.294 353.874 312.684 353.204 311.044 352.464 C 304.731 349.637 298.731 347.064 293.044 344.744 C 285.912 350.594 278.468 356.052 270.744 361.094 C 253.824 372.094 231.414 383.094 209.794 383.144 Z M 211.194 323.624 C 200.564 323.624 196.434 325.774 196.344 325.834 L 196.224 325.884 C 178.224 330.884 169.224 340.474 170.354 353.714 C 171.349 363.947 177.688 372.888 187.014 377.214 C 194.142 380.543 201.927 382.228 209.794 382.144 C 231.184 382.144 253.394 371.144 270.184 360.254 C 277.728 355.314 285.002 349.973 291.974 344.254 C 250.194 327.324 225.124 323.624 211.194 323.624 L 211.194 323.624 Z" fill="#ed9015"/>
  <path d="M 386.534 120.664 C 386.534 120.664 389.174 108.044 427.214 74.664" fill="none" stroke="#000" stroke-miterlimit="10" opacity="0.2"/>
  <path d="M 295.894 128.724 C 288.208 128.801 280.536 128.043 273.014 126.464 C 255.434 122.584 249.104 115.234 248.844 114.924 L 249.614 114.284 C 249.674 114.354 256.054 121.724 273.354 125.514 C 289.354 129.024 318.204 130.094 364.814 115.274 C 367.734 114.384 436.334 93.864 446.624 121.274 L 445.694 121.624 C 435.694 95.114 365.814 116.034 365.114 116.244 C 335.214 125.734 312.564 128.724 295.894 128.724 Z" fill="#ed9015"/>
  <path d="M 445.264 123.454 C 438.094 123.144 424.684 118.614 424.114 118.454 C 409.794 112.814 400.034 105.454 395.114 96.724 C 390.394 88.364 392.984 77.724 400.904 73.064 C 414.024 65.304 429.854 79.494 430.014 79.644 L 429.344 80.384 C 429.184 80.244 413.894 66.544 401.414 73.934 C 393.964 78.334 391.524 88.344 395.984 96.224 C 400.824 104.804 410.424 111.964 424.504 117.514 C 424.614 117.514 438.324 122.174 445.344 122.514 L 445.264 123.454 Z" fill="#ed9015"/>
</svg>